<?xml version="1.0" encoding="UTF-8"?>
<svg class="iconify iconify--noto" width="493.49" height="922.98" aria-hidden="true" role="img" version="1.1" viewBox="0 0 78.959 147.68" xmlns="http://www.w3.org/2000/svg">
 <path d="m34.658 86.766c-0.01414-0.89096 0-1.7819 0.07071-2.6587 0.22627-2.5597 1.1384-8.8883 4.2144-9.7156 1.8314-0.4879 3.8891 1.9092 4.3911 3.2598 1.2374 3.3446 0.46669 7.9762 0.72832 11.533 0.21213 2.8143 0.0071 5.7205 0 8.556 0.0071 4.5326 0.38184 9.249 0 13.774-0.0071 7e-3 -2.3476 27.789-2.9204 34.641-0.07071 0.86267-0.79196 1.5132-1.6476 1.5203-0.86267 0-1.5768-0.6576-1.6546-1.5132l-2.9345-34.655c0-6.2084 0-12.431-0.0071-18.646 0-1.994-0.19799-4.0729-0.24042-6.0953z" fill="#999"/>
 <path d="m43.278 77.553c-1.1314-0.12728-2.2981-0.20506-3.4931-0.21213-1.2445 0-2.4678 0.07778-3.6416 0.2192-0.91217 2.2274-1.2869 5.0346-1.4142 6.5478-0.07778 0.86974-0.09192 1.7607-0.07071 2.6587 0.0495 2.0294 0.24749 4.0941 0.24042 6.0953 0 1.8809 0 3.776 0.0071 5.6639 0 0 1.2869 1.6263 4.6103 1.6263s4.5538-1.5274 4.5538-1.5274c0-0.29698-0.0071-0.5869-0.0071-0.88388 0-2.8284 0.21213-5.7417 0-8.556-0.26163-3.5567 0.50205-8.1812-0.72832-11.533-0.01414-0.02828-0.04243-0.07071-0.05657-0.099z" fill="#808080"/>
 <path d="m35.436 92.437c-7.0357-0.26163-14.001-1.2021-20.541-2.8496-2.7577-0.69296-7.5307-2.7789-11.243-5.671-4.2356-3.288-4.879-9.4894-1.4425-13.605 4.2073-5.0417 11.526-12.049 20.563-13.407v-33.446l33.439-0.0071-0.0071 33.439c9.0298 1.3506 16.341 8.3509 20.556 13.386 3.479 4.1719 2.7436 10.437-1.5839 13.718-3.9315 2.9698-9.0085 5.0912-11.872 5.7771-8.8247 2.1213-18.413 3.0123-27.867 2.6658z" fill="#f44336"/>
 <path d="m22.163 62.251 0.60104-38.799s9.4611 1.3152 15.719 1.3789c6.2508 0.05657 17.734-1.3859 17.734-1.3859l-0.0071 38.134s-6.3781 7.6792-16.843 7.6792c-12.198-0.0071-17.204-7.0074-17.204-7.0074z" fill="#f44336"/>
 <path d="m35.231 56.665c7.1559 5.4589 13.018 6.668 15.309 6.5125 3.677-0.2687 5.6639-3.882 5.671-6.2791l-3e-6 -33.446s-11.476 1.4496-17.734 1.3859c-6.2579-0.06364-15.712-1.3859-15.712-1.3859l-0.28284 14.764c-0.0495 2.5951 0.72125 5.1477 2.2486 7.2408 2.0294 2.7648 4.5043 6.6397 10.501 11.208z" fill="#c62828"/>
 <path d="m8.5586 11.735v14.835c-0.30406 2.4678 1.0253 3.882 1.0253 3.882 3.4931 5.0205 15.507 8.7186 29.797 8.7257 14.298 0 26.304-3.7052 29.797-8.7257 0 0 1.2233-1.0394 1.0253-3.4153v-15.302z" fill="#f44336"/>
 <path d="m70.204 11.735c0.41012 6.463-13.796 11.731-30.823 11.731-17.027 0-30.823-5.2538-30.823-11.731 0-6.4771 13.803-11.554 30.823-11.731 16.454-0.17678 30.406 5.1195 30.823 11.731z" fill="#f44336"/>
 <path d="m22.892 62.173c-2.7789-2.6658-11.469-0.49498-12.049 5.6427-0.4879 5.1831 5.6569 9.0368 9.7298 10.211 4.5113 1.3011 9.4823 1.7183 13.923 0.19092 4.4548-1.5274 8.1459-6.8307 3.6416-8.1671-5.9751-1.7748-9.2702-2.1567-15.245-7.8772z" fill="#ff7555"/>
 <path d="m37.84 21.826c26.806-0.23334 29.204-7.7216 29.423-9.454 0.16264-1.2233-0.44548-2.4819-1.2586-3.4648-2.1355-2.588-7.9125-5.2397-11.102-6.1094-8.3014-2.2627-14.34-2.5173-29.26-0.41012-6.5973 0.92631-13.789 4.8225-14.015 8.3439-0.2687 4.1436 6.3852 11.264 26.212 11.095z" fill="#ff7555"/>
</svg>
